<svg width="340.82750311504077" height="261.35625" viewBox="0 0 350 268.3899822166764" class="css-1j8o68f"><defs id="SvgjsDefs1296"><linearGradient id="SvgjsLinearGradient1303"><stop id="SvgjsStop1304" stop-color="#8f5e25" offset="0"></stop><stop id="SvgjsStop1305" stop-color="#fbf4a1" offset="0.5"></stop><stop id="SvgjsStop1306" stop-color="#8f5e25" offset="1"></stop></linearGradient><linearGradient id="SvgjsLinearGradient1307"><stop id="SvgjsStop1308" stop-color="#8f5e25" offset="0"></stop><stop id="SvgjsStop1309" stop-color="#fbf4a1" offset="0.5"></stop><stop id="SvgjsStop1310" stop-color="#8f5e25" offset="1"></stop></linearGradient><linearGradient id="SvgjsLinearGradient1311"><stop id="SvgjsStop1312" stop-color="#8f5e25" offset="0"></stop><stop id="SvgjsStop1313" stop-color="#fbf4a1" offset="0.5"></stop><stop id="SvgjsStop1314" stop-color="#8f5e25" offset="1"></stop></linearGradient></defs><g id="SvgjsG1297" featurekey="symbolFeature-0" transform="matrix(1.7839849597598914,0,0,1.7839849597598914,85.80075371334607,-21.88092321742764)" fill="url(#SvgjsLinearGradient1303)"><path xmlns="http://www.w3.org/2000/svg" d="M89.0907,41.688l-2.7872-5.8725l-0.0004-0.0007v-9.0676c0-0.006,0-0.012,0-0.0182c0-0.002,0-0.0039,0-0.006  c0-0.0041,0-0.008,0-0.012c0-0.002,0-0.0041,0-0.006c0-0.0041,0-0.0081,0-0.0122c-0.0021-0.0099-0.0021-0.0221-0.0021-0.0341v-0.002  c-0.0141-0.2234-0.0764-0.4347-0.175-0.6219c0,0-0.0021,0-0.0021-0.0021c-0.002-0.002-0.0039-0.006-0.0039-0.01  c-0.0021-0.0021-0.0041-0.0061-0.0061-0.0081c0-0.002-0.002-0.0041-0.002-0.0041c-0.1268-0.2274-0.3099-0.4186-0.5313-0.5534  c-0.0967-0.0583-0.2013-0.1067-0.312-0.143c-0.1489-0.0502-0.3079-0.0764-0.4749-0.0764c0.1651,0,0.3261,0.0262,0.475,0.0764  l-36.227-12.9605c-0.1651-0.0583-0.3361-0.0884-0.5091-0.0884c-0.1732,0-0.3442,0.0301-0.5093,0.0884L11.7621,25.3243  c-0.5997,0.2153-1.0001,0.7829-1.0001,1.4229c0,0.638,0.4004,1.2055,1.0001,1.4208l15.3976,5.5062v7.8467v0.0334  c0-0.0001-0.0001-0.0004-0.0001-0.0005v-0.0341c-1.596,3.2019-2.4935,6.8123-2.4935,10.6321  c0.0041,3.7432,0.8514,8.1647,2.89,12.2642c1.9098,3.8378,4.9044,7.4039,9.2333,9.66v12.1494c0,0.3965,0.161,0.7869,0.4428,1.0667  c0.2818,0.2817,0.6702,0.4427,1.0666,0.4427h19.3865c0.3964,0,0.7869-0.161,1.0666-0.4427  c0.2818-0.2798,0.4428-0.6702,0.4428-1.0667v-6.6211h5.3572c3.5781,0,6.4782-2.9001,6.4782-6.4782v-6.1784l2.3848-0.8814  c1.7489-0.6481,2.8336-2.3003,2.8316-4.0633c0-0.501-0.0865-1.0102-0.2677-1.5013h-0.002l-3.6226-9.8049  c-0.1971-3.2821-1.0587-6.3849-2.4489-9.1764v-7.8461l13.379-4.7858v6.9271l0.1448-0.3079c0.0269-0.0563,0.0688-0.101,0.1018-0.1527  c-0.0329,0.0517-0.0747,0.0964-0.1015,0.1527l-0.1448,0.3079l-2.7894,5.8725c-0.2233,0.4708-0.1892,1.0163,0.0886,1.455  c0.2777,0.4388,0.7547,0.7024,1.276,0.7024h5.8685c0.5192,0,0.9981-0.2636,1.2759-0.7024  C89.2819,42.7043,89.3141,42.1588,89.0907,41.688z M27.5158,42.6669c-0.0453-0.0766-0.0775-0.1702-0.115-0.2578  c0.0375,0.0873,0.0698,0.1803,0.1151,0.257c0.1811,0.299,0.3905,0.5262,0.6147,0.7189  C27.9063,43.1927,27.697,42.966,27.5158,42.6669z M73.1452,61.5461l0.0826,0.4568c-0.002,0.5333-0.328,1.0384-0.8593,1.2317  l-3.3709,1.2458c-0.5937,0.2194-0.9861,0.7828-0.9861,1.4168v7.229c-0.0041,1.9098-1.5497,3.4574-3.4595,3.4595h-6.8666  c-0.3986,0-0.787,0.1609-1.0667,0.4427c-0.2818,0.2818-0.4427,0.6702-0.4427,1.0667v6.6211H39.8081V73.1361  c0-0.5878-0.3441-1.125-0.8774-1.3706c-4.0754-1.8837-6.8647-5.0776-8.6719-8.696c-1.8032-3.6104-2.5759-7.6314-2.574-10.9178  c0-2.8515,0.5713-5.5658,1.6057-8.0391c0.0001,0.0001,0.0004,0.0001,0.0005,0.0002c0.7305,0.3461,1.5919,0.6199,2.6143,0.8795  c3.7955,0.9419,9.7989,1.5194,16.6273,1.5235c5.5443,0,10.5595-0.3884,14.2705-1.0345c1.8596-0.326,3.3831-0.7063,4.5604-1.1873  c0.1408-0.0604,0.2777-0.1188,0.4105-0.1812c0.4206-0.1992,0.7989-0.4206,1.1491-0.7144c0.0012-0.0011,0.0025-0.0026,0.0037-0.0037  c-0.0014,0.0012-0.0025,0.0033-0.0038,0.0045c-0.3482,0.2917-0.7285,0.5152-1.1492,0.7144  c0.9037,2.1614,1.4551,4.5099,1.5799,6.9693l0.0905,0.4467L73.1452,61.5461z M30.6578,41.4184  c0.8796-1.4609,1.9338-2.807,3.133-4.0062c3.7775-3.7754,8.9798-6.1059,14.7416-6.1079c7.5869,0,14.2279,4.0531,17.8747,10.1122  c-0.2919,0.1348-0.68,0.2856-1.1426,0.4184c-1.5577,0.4709-3.9506,0.8995-6.8344,1.1933c-2.8879,0.2979-6.277,0.469-9.8974,0.469  c-5.3975,0-10.29-0.3843-13.7514-0.9882c-1.7268-0.2998-3.1033-0.6621-3.9304-1.0062  C30.7825,41.4746,30.718,41.4466,30.6578,41.4184z M69.5464,42.6697c0.0009-0.0014,0.0018-0.0023,0.0027-0.0037  c0.0785-0.1328,0.1469-0.2837,0.1992-0.4448c0.0768-0.1553,0.0974-0.328,0.1176-0.4989c-0.0201,0.1712-0.0405,0.3444-0.1157,0.4978  c-0.0544,0.163-0.1228,0.3138-0.2013,0.4467C69.5481,42.6681,69.5472,42.6685,69.5464,42.6697z M67.8867,31.1908  c-0.5997,0.2153-1.0001,0.7828-1.0001,1.4208v4.2845v4.2665l-0.0002,0.0001V36.897c-4.3772-5.2607-10.9742-8.6095-18.354-8.6095  c-7.3797,0-13.9767,3.3467-18.3539,8.6094v-0.0007v-4.2845c0-0.638-0.4004-1.2055-1.0001-1.4208l-12.4252-4.4457l31.7794-11.3665  l31.7793,11.3686L67.8867,31.1908z M84.7937,34.6462c0.0001,0,0,0,0.0001,0c-0.1452,0-0.2877,0.021-0.4233,0.0607  C84.506,34.6672,84.6483,34.6462,84.7937,34.6462z M84.2466,40.8266l0.5475-1.1532l0.5473,1.1532H84.2466z"></path></g><g id="SvgjsG1298" featurekey="nameFeature-0" transform="matrix(2.2237326572633846,0,0,2.2237326572633846,-4.4903737759586635,132.98504754137917)" fill="url(#SvgjsLinearGradient1307)"><path d="M5.68 39.68 c0.12 0.04 0.48 0.04 0.84 0.04 c0.8 0 1.04 -2.88 1.12 -3.48 c0.04 -0.48 0.16 -0.52 0.56 -0.6 c2 -0.24 3 -0.08 5 -0.04 c0.44 0 0.68 0.2 0.8 0.56 l0.28 0.92 c0.24 0.68 0.44 1.52 0.68 2.2 c0.16 0.48 0.2 0.44 0.68 0.44 c0.64 0 2.96 0 3.64 -0.04 c0.92 0 0.28 -1.88 0.16 -2.2 c-0.36 -1.12 -0.44 -2.28 -0.8 -3.4 c-0.16 -0.48 -4.72 -22.12 -4.92 -23.32 c-0.28 -0.72 -0.04 -0.76 -0.68 -0.76 c-1.36 0 -2.8 0.08 -4.2 0 c-0.56 0 -0.52 0.16 -0.6 0.76 c-0.08 0.56 -1.52 6.92 -2.08 9.56 c-0.72 3.32 -1.36 6.52 -2.16 9.8 c-0.28 1.16 -2.2 9.52 -1.96 9.56 c0.12 0.08 0.32 0.04 0.48 0.04 c1 0 1.92 0 3.16 -0.04 z M10.92 30.6 l-0.84 0 c-1.12 0 -1.16 0 -0.88 -1.16 c0.2 -0.88 1.28 -5.64 1.52 -6.8 c0.04 -0.08 0.12 -0.16 0.16 -0.16 c0.08 0 0.16 0.08 0.2 0.12 c0.16 0.48 0.32 1.68 0.48 2.16 c0.36 1.52 0.6 2.8 0.96 4.44 c0.36 1.44 0.2 1.44 -0.52 1.44 c-0.36 0 -0.72 -0.04 -1.08 -0.04 z M41.342 32.64 c0.24 -0.52 0.44 -1.04 0.64 -1.56 c0.44 -1.28 0.52 -2.6 0.64 -3.92 c0.24 -2.8 0.16 -5.64 -0.56 -8.36 c-0.88 -3.48 -3.12 -6.68 -6.48 -8.16 c-1.52 -0.68 -3.24 -0.76 -4.88 -0.72 c-1.72 0 -3.48 -0.08 -5.2 0.08 c-0.48 0.04 -0.72 0.28 -0.8 0.72 c-0.08 0.48 -0.16 0.96 -0.16 1.4 c0.08 2.44 0 9.68 0.08 10.88 c0.04 1.08 -0.08 2.4 -0.08 3.48 c0.04 2.68 0 5.4 0 8.08 c0 1.12 -0.04 2.2 -0.04 3.32 c0 1.2 -0.44 1.72 2.84 1.72 c2.92 0 5.96 -0.24 8.72 -1.28 c2.56 -0.92 4.16 -3.28 5.28 -5.68 z M29.702 28.48 l0 -4.8 c0 -3.04 0.08 -5 -0.04 -7.56 l0 -0.48 c0.04 -0.84 0.16 -0.88 1.04 -0.88 c1.16 -0.04 2 0.24 3 0.64 s1.56 1.28 2.08 2.12 c1 1.64 1.4 3.44 1.48 5.32 c0.04 1.08 0.08 2.16 0.08 3.24 c0 5.12 -3 8.68 -5.64 8.68 c-1.76 0 -2.04 0.12 -2.04 -1.04 c0 -1.2 0.08 -2.4 0.08 -3.6 c-0.04 -0.52 -0.04 -1.08 -0.04 -1.64 z M59.48400000000001 28.16 c0 1.8 -0.04 5.36 -0.08 5.36 l0 5.44 c0 0.24 -0.04 0.64 0.08 0.88 c0.12 0.28 0.48 0.2 0.72 0.16 c1.16 -0.12 2.32 0.04 3.48 0 c1.28 -0.04 0.88 -2 0.84 -2.8 c-0.16 -1.76 0.04 -15.16 0.04 -19.96 c0 -2.16 -0.08 -6.6 -0.2 -6.8 c-0.2 -0.36 -0.72 -0.44 -1.12 -0.48 c-0.88 -0.16 -1.32 0.08 -2.64 0.08 s-1.4 0.4 -1.4 1.8 l0 1.2 c-0.04 0.96 0.12 7.68 0.12 8.76 c0 0.52 -0.04 0.56 -0.56 0.56 c-1.32 -0.04 -3.16 0.12 -4.52 0 c-1.96 -0.16 -1.52 0 -1.64 -1.8 l0 -0.24 c0 -2.56 0.32 -9.2 0.2 -9.6 c-0.2 -0.6 -0.44 -0.72 -0.96 -0.68 c-1.2 0.08 -2.44 -0.12 -3.64 -0.04 c-0.4 0.04 -0.52 0.16 -0.64 0.56 c-0.04 0.2 -0.08 0.4 -0.08 0.6 c0 1.24 0.08 2.92 0.12 4.16 l-0.12 23.72 c0 1.04 0.92 0.92 2.96 0.92 c1.88 0 2.36 0.44 2.36 -1.8 c0 -1.8 -0.12 -4.08 -0.08 -5.88 c0.04 -1.4 0 -2.76 0 -4.16 c0.04 -0.52 0.16 -0.68 0.64 -0.68 c1.76 -0.04 3.68 0 5.44 0 c0.56 0 0.68 0.08 0.68 0.72 z M86.186 32.64 c0.24 -0.52 0.44 -1.04 0.64 -1.56 c0.44 -1.28 0.52 -2.6 0.64 -3.92 c0.24 -2.8 0.16 -5.64 -0.56 -8.36 c-0.88 -3.48 -3.12 -6.68 -6.48 -8.16 c-1.52 -0.68 -3.24 -0.76 -4.88 -0.72 c-1.72 0 -3.48 -0.08 -5.2 0.08 c-0.48 0.04 -0.72 0.28 -0.8 0.72 c-0.08 0.48 -0.16 0.96 -0.16 1.4 c0.08 2.44 0 9.68 0.08 10.88 c0.04 1.08 -0.08 2.4 -0.08 3.48 c0.04 2.68 0 5.4 0 8.08 c0 1.12 -0.04 2.2 -0.04 3.32 c0 1.2 -0.44 1.72 2.84 1.72 c2.92 0 5.96 -0.24 8.72 -1.28 c2.56 -0.92 4.16 -3.28 5.28 -5.68 z M74.546 28.48 l0 -4.8 c0 -3.04 0.08 -5 -0.04 -7.56 l0 -0.48 c0.04 -0.84 0.16 -0.88 1.04 -0.88 c1.16 -0.04 2 0.24 3 0.64 s1.56 1.28 2.08 2.12 c1 1.64 1.4 3.44 1.48 5.32 c0.04 1.08 0.08 2.16 0.08 3.24 c0 5.12 -3 8.68 -5.64 8.68 c-1.76 0 -2.04 0.12 -2.04 -1.04 c0 -1.2 0.08 -2.4 0.08 -3.6 c-0.04 -0.52 -0.04 -1.08 -0.04 -1.64 z M93.048 31.240000000000002 c0.28 0.08 0.76 0.04 2.84 0.04 c1.4 0 2.92 -0.04 4.32 -0.04 c1.52 0 1.44 -0.6 1.44 -1.4 c0.04 -1.16 0.08 -1.72 0.08 -2.88 c0 -0.76 -0.2 -1.08 -0.96 -1.08 c-3.92 0 -4.72 0.16 -6.36 0.04 c-0.56 -0.04 -1.12 0 -1.68 0.08 c-0.2 0 -0.4 0.12 -0.4 0.48 c0.08 1.28 0.08 2.52 0.12 3.84 c0.04 0.52 0.08 0.76 0.6 0.92 z M123.31 32.64 c0.24 -0.52 0.44 -1.04 0.64 -1.56 c0.44 -1.28 0.52 -2.6 0.64 -3.92 c0.24 -2.8 0.16 -5.64 -0.56 -8.36 c-0.88 -3.48 -3.12 -6.68 -6.48 -8.16 c-1.52 -0.68 -3.24 -0.76 -4.88 -0.72 c-1.72 0 -3.48 -0.08 -5.2 0.08 c-0.48 0.04 -0.72 0.28 -0.8 0.72 c-0.08 0.48 -0.16 0.96 -0.16 1.4 c0.08 2.44 0 9.68 0.08 10.88 c0.04 1.08 -0.08 2.4 -0.08 3.48 c0.04 2.68 0 5.4 0 8.08 c0 1.12 -0.04 2.2 -0.04 3.32 c0 1.2 -0.44 1.72 2.84 1.72 c2.92 0 5.96 -0.24 8.72 -1.28 c2.56 -0.92 4.16 -3.28 5.28 -5.68 z M111.67 28.48 l0 -4.8 c0 -3.04 0.08 -5 -0.04 -7.56 l0 -0.48 c0.04 -0.84 0.16 -0.88 1.04 -0.88 c1.16 -0.04 2 0.24 3 0.64 s1.56 1.28 2.08 2.12 c1 1.64 1.4 3.44 1.48 5.32 c0.04 1.08 0.08 2.16 0.08 3.24 c0 5.12 -3 8.68 -5.64 8.68 c-1.76 0 -2.04 0.12 -2.04 -1.04 c0 -1.2 0.08 -2.4 0.08 -3.6 c-0.04 -0.52 -0.04 -1.08 -0.04 -1.64 z M131.09199999999998 9.96 c-0.04 0 -0.36 -0.04 -0.68 -0.04 c-0.56 0 -0.84 0.2 -0.92 0.72 c-0.04 0.28 -0.04 0.6 0.04 0.84 c0.32 1.24 6.52 26.88 6.84 28 c0.12 0.48 0.16 0.48 0.64 0.48 l3.24 0 l0.24 0 c0.52 0 0.56 -0.72 0.68 -1.4 c0.8 -4.12 1.8 -8.2 2.76 -12.16 c0.04 -0.24 0.12 -0.48 0.2 -0.68 c0.04 -0.08 0.12 -0.12 0.16 -0.12 c0.08 0 0.16 0.04 0.2 0.12 c0.2 0.48 2.6 11.84 3.08 13.8 c0.08 0.24 0.2 0.44 0.52 0.44 l3.2 0 c0.6 0 1 -0.32 1.12 -0.92 c0.52 -2.64 1.2 -5.6 1.84 -8.2 c0.8 -3.2 1.64 -6.36 2.48 -9.56 c0.64 -2.56 1.32 -5.36 2.12 -7.88 c0.28 -0.84 1.32 -3.36 -0.44 -3.36 c-0.88 0 -1.64 -0.08 -2.52 -0.04 c-0.28 0 -0.56 0 -0.84 0.04 c-0.44 0 -0.76 0.24 -0.92 0.64 c-0.12 0.4 -0.32 0.84 -0.44 1.24 c-0.6 2.56 -1.16 5.48 -1.88 8 c-0.52 1.88 -1.08 3.72 -1.52 5.6 c0 0.04 -0.16 0.64 -0.32 0.64 c-0.28 0 -0.36 -0.44 -0.44 -0.84 c-0.04 -0.16 -2.04 -11.64 -2.32 -13.88 c-0.08 -0.88 -0.36 -1.4 -1.28 -1.44 l-0.48 0 c-1.04 0.08 -1.6 -0.04 -2.64 0.04 c-0.84 0.04 -0.96 0.12 -1.16 0.88 c-0.04 0.16 -0.04 0.36 -0.08 0.56 c-0.32 1.76 -2.4 13.12 -2.68 14.48 c0 0.08 -0.04 0.24 -0.16 0.24 c-0.16 0 -0.2 -0.2 -0.24 -0.28 c-0.04 -0.16 -3.52 -14.84 -3.64 -15.2 c-0.16 -0.48 -0.52 -0.76 -1.08 -0.76 c-0.88 0.04 -1.56 0 -2.68 0 z"></path></g><g id="SvgjsG1299" featurekey="sloganFeature-0" transform="matrix(2.520081944192857,0,0,2.520081944192857,34.999999399165645,217.78674177622565)" fill="url(#SvgjsLinearGradient1311)"><path d="M5.32 20 l-0.72 -4.94 l-2.02 0 l-0.66 4.94 l-1.92 0 l2.16 -14.3 l2.58 0 l2.5 14.3 l-1.92 0 z M2.84 13.16 l1.48 0 l-0.76 -5.2 z M11.5005 20.02 l-2.5 0 l0 -14.26 l2.5 0 c1.7 0 3.06 1.38 3.06 3.08 l0 8.1 c0 0.82 -0.32 1.6 -0.9 2.18 s-1.34 0.9 -2.16 0.9 z M10.900500000000001 7.68 l0 10.42 l0.6 0 c0.3 0 0.6 -0.12 0.82 -0.34 s0.34 -0.5 0.34 -0.82 l0 -8.1 c0 -0.64 -0.52 -1.16 -1.16 -1.16 l-0.6 0 z M19.921000000000003 5.720000000000001 l1.9 0 l0 14.26 l-1.9 0 l0 -7.54 l-1.7 0 l0 7.54 l-1.9 0 l0 -14.26 l1.9 0 l0 4.84 l1.7 0 l0 -4.84 z M26.081500000000002 20.02 l-2.5 0 l0 -14.26 l2.5 0 c1.7 0 3.06 1.38 3.06 3.08 l0 8.1 c0 0.82 -0.32 1.6 -0.9 2.18 s-1.34 0.9 -2.16 0.9 z M25.4815 7.68 l0 10.42 l0.6 0 c0.3 0 0.6 -0.12 0.82 -0.34 s0.34 -0.5 0.34 -0.82 l0 -8.1 c0 -0.64 -0.52 -1.16 -1.16 -1.16 l-0.6 0 z M38.1625 20.02 l-2.5 0 l0 -14.26 l2.5 0 c1.7 0 3.06 1.38 3.06 3.08 l0 8.1 c0 0.82 -0.32 1.6 -0.9 2.18 s-1.34 0.9 -2.16 0.9 z M37.5625 7.68 l0 10.42 l0.6 0 c0.3 0 0.6 -0.12 0.82 -0.34 s0.34 -0.5 0.34 -0.82 l0 -8.1 c0 -0.64 -0.52 -1.16 -1.16 -1.16 l-0.6 0 z M44.883 5.68 l0 14.24 l-1.9 0 l0 -14.24 l1.9 0 z M49.1435 20.02 l-2.5 0 l0 -14.26 l2.5 0 c1.7 0 3.06 1.38 3.06 3.08 l0 8.1 c0 0.82 -0.32 1.6 -0.9 2.18 s-1.34 0.9 -2.16 0.9 z M48.5435 7.68 l0 10.42 l0.6 0 c0.3 0 0.6 -0.12 0.82 -0.34 s0.34 -0.5 0.34 -0.82 l0 -8.1 c0 -0.64 -0.52 -1.16 -1.16 -1.16 l-0.6 0 z M58.604000000000006 16.72 l0.08 -11.08 l1.92 0 l-0.12 14.44 l-2.98 0 l-1.62 -11.18 l0 11.18 l-1.92 0 l0 -14.44 l3.1 0 z M63.804500000000004 8.34 l-0.18 0 l-0.36 -1.04 l-0.9 0 l0 -1.58 l1.44 0 l0 2.62 z M72.48500000000001 5.68 l0 1.92 l-2.38 0 l0 12.42 l-1.92 0 l0 -12.42 l-2.62 0 l0 -1.92 l6.92 0 z M86.846 5.720000000000001 l1.92 0 l-1.86 14.28 l-1.98 0 l-1 -7.16 l-0.94 7.16 l-1.98 0 l-2 -14.28 l1.92 0 l1.04 7.36 l0.96 -7.36 l1.92 0 l1.04 7.36 z M93.2265 20.02 c-1.5 0 -2.7 -1.22 -2.7 -2.7 l0 -8.98 c0 -1.48 1.2 -2.68 2.7 -2.68 c1.48 0 2.68 1.2 2.68 2.68 l0 8.98 c0 1.48 -1.2 2.7 -2.68 2.7 z M93.2265 7.5600000000000005 c-0.44 0 -0.78 0.36 -0.78 0.78 l0 8.98 c0 0.44 0.34 0.78 0.78 0.78 c0.42 0 0.78 -0.34 0.78 -0.78 l0 -8.98 c0 -0.42 -0.36 -0.78 -0.78 -0.78 z M103.147 20.04 l-2.04 0 l-1.1 -3.02 l-0.44 0 l0 3.02 l-1.9 0 l0 -14.32 l2.98 0 c1.32 0 2.38 1.06 2.38 2.38 l0 6.54 c0 0.86 -0.44 1.6 -1.12 2.02 z M99.56700000000001 7.619999999999999 l0 7.5 l1.08 0 c0.26 0 0.48 -0.22 0.48 -0.48 l0 -6.54 c0 -0.26 -0.22 -0.48 -0.48 -0.48 l-1.08 0 z M109.1675 19.92 l-2.1 -7.88 l-0.3 0.5 l0 7.44 l-1.86 0 l0 -14.26 l1.86 0 l0 3.1 l1.24 -3.1 l2.3 0 l-1.9 4.12 l2.7 10.08 l-1.94 0 z"></path></g></svg>